<?xml version="1.0" encoding="UTF-8" standalone="no"?>
<svg
   version="1.1"
   id="Layer_1"
   x="0px"
   y="0px"
   viewBox="0 0 115.28 122.88"
   style="enable-background:new 0 0 115.28 122.88"
   xml:space="preserve"
   sodipodi:docname="logo.svg"
   inkscape:version="1.3.2 (091e20e, 2023-11-25, custom)"
   xmlns:inkscape="http://www.inkscape.org/namespaces/inkscape"
   xmlns:sodipodi="http://sodipodi.sourceforge.net/DTD/sodipodi-0.dtd"
   xmlns="http://www.w3.org/2000/svg"
   xmlns:svg="http://www.w3.org/2000/svg"><defs
     id="defs1" /><sodipodi:namedview
     id="namedview1"
     pagecolor="#ffffff"
     bordercolor="#000000"
     borderopacity="0.25"
     inkscape:showpageshadow="2"
     inkscape:pageopacity="0.0"
     inkscape:pagecheckerboard="0"
     inkscape:deskcolor="#d1d1d1"
     inkscape:zoom="2.0792644"
     inkscape:cx="30.299177"
     inkscape:cy="62.762582"
     inkscape:window-width="1360"
     inkscape:window-height="707"
     inkscape:window-x="-8"
     inkscape:window-y="-8"
     inkscape:window-maximized="1"
     inkscape:current-layer="Layer_1" /><style
     type="text/css"
     id="style1">.st0{fill-rule:evenodd;clip-rule:evenodd;}</style><g
     id="g2"
     transform="translate(-123.26526,-0.0050007)"
     style="fill:#ffffff;fill-opacity:1"><path
       class="st0"
       d="m 221.05526,57.005001 h 9.93 c 4.16,0 7.56,3.41 7.56,7.56 v 31.42 c 0,4.149999 -3.41,7.559999 -7.56,7.559999 h -9.93 v 13.55 c 0,1.61 -0.65,3.04 -1.7,4.1 -1.06,1.06 -2.49,1.7 -4.1,1.7 h -86.18 c -1.61,0 -3.04,-0.64 -4.1,-1.7 -1.06,-1.06 -1.7,-2.49 -1.7,-4.1 V 5.8550014 c 0,-1.61 0.65,-3.04 1.7,-4.1 1.06,-1.06000003 2.53,-1.70000003 4.1,-1.70000003 h 58.72 c 0.13,-0.05 0.27,-0.05 0.41,-0.05 0.64,0 1.29,0.28 1.75,0.69 h 0.09 c 0.09,0.05 0.14,0.09 0.23,0.18 l 29.99,30.35999963 c 0.51,0.51 0.88,1.2 0.88,1.98 0,0.23 -0.05,0.41 -0.09,0.65 z"
       id="path1-7"
       style="clip-rule:evenodd;fill:#ffffff;fill-opacity:1;fill-rule:evenodd"
       sodipodi:nodetypes="csssscscssssscscsccccsccc" /></g><g
     id="g1"><path
       class="st0"
       d="M25.38,57h64.88V37.34H69.59c-2.17,0-5.19-1.17-6.62-2.6c-1.43-1.43-2.3-4.01-2.3-6.17V7.64l0,0H8.15 c-0.18,0-0.32,0.09-0.41,0.18C7.59,7.92,7.55,8.05,7.55,8.24v106.45c0,0.14,0.09,0.32,0.18,0.41c0.09,0.14,0.28,0.18,0.41,0.18 c22.78,0,58.09,0,81.51,0c0.18,0,0.17-0.09,0.27-0.18c0.14-0.09,0.33-0.28,0.33-0.41v-11.16H25.38c-4.14,0-7.56-3.4-7.56-7.56 V64.55C17.82,60.4,21.22,57,25.38,57L25.38,57z M29.49,68.38h7.43v18.15h11.63v5.92H29.49V68.38L29.49,68.38z M49.89,80.43 c0-3.93,1.09-6.99,3.28-9.17c2.19-2.19,5.24-3.28,9.15-3.28c4.01,0,7.09,1.08,9.26,3.22c2.17,2.15,3.25,5.16,3.25,9.04 c0,2.81-0.47,5.11-1.42,6.91c-0.95,1.8-2.32,3.2-4.11,4.2c-1.79,1-4.02,1.5-6.69,1.5c-2.71,0-4.96-0.43-6.74-1.29 c-1.78-0.87-3.22-2.23-4.32-4.11C50.44,85.58,49.89,83.24,49.89,80.43L49.89,80.43z M57.31,80.44c0,2.43,0.45,4.17,1.36,5.23 c0.91,1.06,2.14,1.59,3.7,1.59c1.6,0,2.84-0.52,3.71-1.56c0.88-1.04,1.32-2.9,1.32-5.6c0-2.26-0.46-3.92-1.37-4.96 c-0.92-1.05-2.16-1.57-3.73-1.57c-1.5,0-2.71,0.53-3.62,1.59C57.77,76.24,57.31,77.99,57.31,80.44L57.31,80.44z M90.42,83.74v-5.01 h11.49v10.23c-2.2,1.5-4.15,2.53-5.83,3.07c-1.69,0.54-3.7,0.81-6.02,0.81c-2.86,0-5.19-0.49-6.99-1.46 c-1.8-0.97-3.19-2.42-4.18-4.35c-0.99-1.92-1.48-4.13-1.48-6.63c0-2.63,0.54-4.91,1.62-6.85c1.08-1.94,2.67-3.41,4.76-4.42 c1.63-0.78,3.83-1.17,6.58-1.17c2.66,0,4.64,0.24,5.96,0.72c1.32,0.48,2.41,1.23,3.28,2.24c0.87,1.01,1.52,2.3,1.96,3.85 l-7.16,1.29c-0.3-0.91-0.8-1.61-1.5-2.09c-0.71-0.49-1.6-0.73-2.7-0.73c-1.62,0-2.92,0.57-3.89,1.7c-0.97,1.13-1.45,2.92-1.45,5.37 c0,2.6,0.49,4.46,1.47,5.57c0.97,1.11,2.34,1.68,4.09,1.68c0.83,0,1.62-0.12,2.37-0.36c0.75-0.24,1.61-0.65,2.59-1.22v-2.25H90.42 L90.42,83.74z M97.79,57h9.93c4.16,0,7.56,3.41,7.56,7.56v31.42c0,4.15-3.41,7.56-7.56,7.56h-9.93v13.55c0,1.61-0.65,3.04-1.7,4.1 c-1.06,1.06-2.49,1.7-4.1,1.7c-29.44,0-56.59,0-86.18,0c-1.61,0-3.04-0.64-4.1-1.7c-1.06-1.06-1.7-2.49-1.7-4.1V5.85 c0-1.61,0.65-3.04,1.7-4.1c1.06-1.06,2.53-1.7,4.1-1.7h58.72C64.66,0,64.8,0,64.94,0c0.64,0,1.29,0.28,1.75,0.69h0.09 c0.09,0.05,0.14,0.09,0.23,0.18l29.99,30.36c0.51,0.51,0.88,1.2,0.88,1.98c0,0.23-0.05,0.41-0.09,0.65V57L97.79,57z M67.52,27.97 V8.94l21.43,21.7H70.19c-0.74,0-1.38-0.32-1.89-0.78C67.84,29.4,67.52,28.71,67.52,27.97L67.52,27.97z"
       id="path1" /></g></svg>
